HIERARCHY
ROOT Hips
{
	OFFSET 0.000000 0.000000 0.000000 
	CHANNELS 6 Xposition Yposition Zposition Zrotation Yrotation Xrotation
	JOINT LeftUpLeg
	{
		OFFSET 1.363060 -1.794630 0.839290 
		CHANNELS 3 Zrotation Yrotation Xrotation
		JOINT LeftLeg
		{
			OFFSET 2.448110 -6.726130 0.000000 
			CHANNELS 3 Zrotation Yrotation Xrotation
			JOINT LeftFoot
			{
				OFFSET 2.562200 -7.039590 0.000000 
				CHANNELS 3 Zrotation Yrotation Xrotation
				JOINT LeftToeBase
				{
					OFFSET 0.157640 -0.433110 2.322550 
					CHANNELS 3 Zrotation Yrotation Xrotation
					End Site
					{
						OFFSET 0.000000 0.000000 0.000000 
					}
				}
			}
		}
	}
	JOINT RightUpLeg
	{
		OFFSET -1.305520 -1.794630 0.839290 
		CHANNELS 3 Zrotation Yrotation Xrotation
		JOINT RightLeg
		{
			OFFSET -2.542530 -6.985550 0.000000 
			CHANNELS 3 Zrotation Yrotation Xrotation
			JOINT RightFoot
			{
				OFFSET -2.568260 -7.056230 0.000000 
				CHANNELS 3 Zrotation Yrotation Xrotation
				JOINT RightToeBase
				{
					OFFSET -0.164730 -0.452590 2.363150 
					CHANNELS 3 Zrotation Yrotation Xrotation
					End Site
					{
						OFFSET 0.000000 0.000000 0.000000 
					}
				}
			}
		}
	}
	JOINT Spine
	{
		OFFSET 0.028270 2.035590 -0.193380 
		CHANNELS 3 Zrotation Yrotation Xrotation
		JOINT Spine1
		{
			OFFSET 0.056720 2.048850 -0.042750 
			CHANNELS 3 Zrotation Yrotation Xrotation
			JOINT Neck1
			{
				OFFSET -0.054170 1.746240 0.172020 
				CHANNELS 3 Zrotation Yrotation Xrotation
				JOINT Head
				{
					OFFSET 0.104070 1.761360 -0.123970 
					CHANNELS 3 Zrotation Yrotation Xrotation
					End Site
					{
						OFFSET 0.000000 0.000000 0.000000 
					}
				}
			}
			JOINT LeftArm
			{
				OFFSET 3.362410 1.200890 -0.311210 
				CHANNELS 3 Zrotation Yrotation Xrotation
				JOINT LeftForeArm
				{
					OFFSET 4.983000 -0.000000 -0.000000 
					CHANNELS 3 Zrotation Yrotation Xrotation
					JOINT LeftHand
					{
						OFFSET 3.483560 -0.000000 -0.000000 
						CHANNELS 3 Zrotation Yrotation Xrotation
						JOINT LeftHandIndex1
						{
							OFFSET 0.715260 -0.000000 -0.000000 
							CHANNELS 3 Zrotation Yrotation Xrotation
							End Site
							{
								OFFSET 0.000000 0.000000 0.000000 
							}
						}
					}
				}
			}
			JOINT RightArm
			{
				OFFSET -3.136600 1.374050 -0.404650 
				CHANNELS 3 Zrotation Yrotation Xrotation
				JOINT RightForeArm
				{
					OFFSET -5.241900 -0.000000 -0.000000 
					CHANNELS 3 Zrotation Yrotation Xrotation
					JOINT RightHand
					{
						OFFSET -3.444170 -0.000000 -0.000000 
						CHANNELS 3 Zrotation Yrotation Xrotation
						JOINT RightHandIndex1
						{
							OFFSET -0.622530 -0.000000 -0.000000 
							CHANNELS 3 Zrotation Yrotation Xrotation
							End Site
							{
								OFFSET 0.000000 0.000000 0.000000 
							}
						}
					}
				}
			}
		}
	}
}
MOTION
Frames: 6
Frame Time: 0.041667
0.022275 17.841269 -30.233589 -2.849387 3.606262 6.663074 -7.774323 -1.688462 -12.203736 0.559671 9.011487 23.594165 -3.924689 15.838029 -3.878509 2.771900 -10.316400 -30.007400 15.300920 0.642013 -11.794963 -1.547898 -9.952491 26.506490 5.328021 -22.168664 -10.715986 -0.062000 1.606100 -4.418300 2.503252 -0.349440 -4.052447 1.884834 -0.159158 -3.035625 -0.177648 -0.583411 15.308334 -3.749800 0.098800 10.601800 -93.128547 7.579827 15.660278 15.917892 -25.074372 -3.245982 0.257521 0.469441 -6.485872 -7.125000 0.000000 0.000000 87.788045 -1.217363 11.855956 -12.522297 21.180023 -2.341585 0.020640 -0.540406 -0.875646 7.125000 0.000000 0.000000 
0.025855 17.835303 -30.256561 -2.770874 4.079988 6.282608 -7.858489 -2.332333 -11.765745 0.567764 9.055320 23.702667 -3.971987 16.010013 -3.996436 2.517300 -9.869400 -28.554700 15.250737 0.251148 -11.604361 -1.565855 -9.986285 26.601028 5.338274 -22.227674 -10.893651 -0.058100 1.556000 -4.280100 2.471336 -0.559834 -4.043002 1.851780 -0.263367 -3.416220 -0.194844 -0.560439 15.301495 -3.763900 0.111700 10.605200 -93.116926 7.605376 15.681380 15.935359 -25.092077 -3.250344 0.255173 0.463908 -6.576843 -7.125000 0.000000 0.000000 87.813792 -1.206123 11.836813 -12.536530 21.199288 -2.346756 0.022135 -0.542125 -0.915515 7.125000 0.000000 0.000000 
0.028441 17.830231 -30.280129 -2.778807 4.549003 5.899672 -7.853397 -2.539409 -11.466735 0.563313 9.055374 23.686770 -3.925574 15.876746 -3.787480 2.279800 -9.426100 -27.137600 15.302322 -0.120340 -11.366957 -1.568013 -9.990779 26.597422 5.365912 -22.343400 -10.987736 -0.057100 1.542000 -4.241400 2.460551 -0.754141 -4.032536 1.799589 -0.361322 -3.800196 -0.204482 -0.550760 15.316339 -3.774900 0.119800 10.617000 -93.113182 7.632930 15.694618 15.947247 -25.106752 -3.255872 0.258644 0.464860 -6.473666 -7.125000 0.000000 0.000000 87.833606 -1.228715 11.850200 -12.570131 21.244904 -2.357560 0.022312 -0.542986 -0.960815 7.125000 0.000000 0.000000 
0.019192 17.840673 -30.250097 -2.763687 4.239690 6.487330 -7.798851 -2.277635 -11.991886 0.560959 9.032226 23.649729 -3.916677 15.820230 -3.803178 2.593000 -10.005100 -28.993300 15.289994 0.333623 -11.744355 -1.560756 -9.972719 26.569164 5.380653 -22.375907 -11.010175 -0.057600 1.548100 -4.258200 2.475045 -0.669796 -4.097730 1.895583 -0.316750 -3.326197 -0.176420 -0.556896 15.361750 -3.764600 0.122700 10.634900 -93.088325 7.607257 15.693006 15.911160 -25.061340 -3.242990 0.259775 0.466444 -6.500783 -7.125000 0.000000 0.000000 87.865633 -1.197806 11.801156 -12.535370 21.199938 -2.346449 0.017658 -0.540015 -0.825906 7.125000 0.000000 0.000000 
0.015911 17.842264 -30.243633 -2.748925 4.233413 6.584426 -7.791989 -2.264488 -12.054873 0.555578 9.019204 23.614693 -3.914729 15.810708 -3.783183 2.613300 -10.041000 -29.109600 15.288057 0.402540 -11.785678 -1.555731 -9.963279 26.542717 5.391129 -22.411913 -11.044516 -0.057000 1.540600 -4.237600 2.474104 -0.689181 -4.104887 1.926374 -0.325519 -3.229348 -0.192420 -0.555810 15.377209 -3.778100 0.126100 10.639900 -93.073053 7.604835 15.702448 15.903417 -25.051481 -3.240172 0.260021 0.466846 -6.497664 -7.125000 0.000000 0.000000 87.890664 -1.182821 11.767805 -12.518066 21.177089 -2.341102 0.014044 -0.538272 -0.735859 7.125000 0.000000 0.000000 
0.012629 17.844650 -30.233689 -2.744659 4.145350 6.697145 -7.782690 -2.181293 -12.116097 0.545363 8.994673 23.544027 -3.918360 15.819217 -3.767969 2.646200 -10.098900 -29.297700 15.289228 0.510321 -11.820456 -1.549140 -9.952426 26.510810 5.393669 -22.418858 -11.052200 -0.056900 1.539600 -4.234900 2.474500 -0.677543 -4.100959 1.954651 -0.319516 -3.082843 -0.219085 -0.553940 15.389459 -3.796700 0.129100 10.641300 -93.058742 7.603920 15.703144 15.899940 -25.047157 -3.238914 0.259580 0.467306 -6.498405 -7.125000 0.000000 0.000000 87.915607 -1.163359 11.736368 -12.493928 21.144943 -2.333619 0.009839 -0.536151 -0.629477 7.125000 0.000000 0.000000 
